<svg width="247" height="31" viewBox="0 0 247 31" fill="none" xmlns="http://www.w3.org/2000/svg">
<g clip-path="url(#clip0_454_724)">
<path d="M44.0582 1.24458L34.143 30.4923H28.5839L22.0291 11.4917L15.4743 30.4923H9.91517L0 1.24458H6.8452L12.8606 20.909L19.3739 1.16161H24.8501L31.3634 20.909L37.3789 1.24458H44.0582ZM66.4221 30.2849H60.1162V17.8805C60.1162 14.8935 58.7057 13.3585 56.2995 13.3585C53.8933 13.3585 52.3583 14.8935 52.3583 17.8805V30.2849H46.0524V0H52.3583V11.2013C53.8103 9.33436 55.6772 7.63343 58.8716 7.63343C63.6425 7.63343 66.4221 10.7864 66.4221 15.8892V30.2849ZM88.9509 30.2849H82.8525V27.8787C81.3175 29.5796 79.2017 30.6997 76.1317 30.6997C71.9416 30.6997 68.4983 28.2935 68.4983 23.896V23.813C68.4983 18.9592 72.1906 16.7189 77.4593 16.7189C79.6995 16.7189 81.3175 17.0923 82.894 17.6316V17.2582C82.894 14.6446 81.276 13.1926 78.1231 13.1926C75.7169 13.1926 74.016 13.6489 71.9831 14.3957L70.4067 9.58328C72.8543 8.50464 75.2605 7.79938 79.0358 7.79938C85.9225 7.79938 88.9509 11.3672 88.9509 17.3827V30.2849ZM82.9769 22.444V21.3239C81.8983 20.826 80.4878 20.4941 78.9528 20.4941C76.2562 20.4941 74.5968 21.5728 74.5968 23.5641V23.6471C74.5968 25.348 76.0073 26.3437 78.0401 26.3437C80.9856 26.3437 82.9769 24.7257 82.9769 22.444ZM104.588 29.3722C103.26 30.1604 101.725 30.6582 99.6093 30.6582C95.7511 30.6582 93.1375 29.1232 93.1375 23.979V13.4415H90.4824V8.04829H93.1375V2.3647H99.4433V8.04829H104.671V13.4415H99.4433V22.9418C99.4433 24.3938 100.066 25.0991 101.476 25.0991C102.638 25.0991 103.675 24.8087 104.588 24.3109V29.3722Z" fill="#111827"/>
<path d="M144.076 30.2864H138.641L124.577 11.8251V30.2864H118.272V1.24609H124.163L137.77 19.1266V1.24609H144.076V30.2864Z" fill="#F24E1E"/>
<path d="M178.552 15.764C178.552 24.0198 172.039 30.782 163.078 30.782C154.117 30.782 147.687 24.1027 147.687 15.847V15.764C147.687 7.50833 154.2 0.746094 163.161 0.746094C172.122 0.746094 178.552 7.42535 178.552 15.6811V15.764ZM171.873 15.847V15.764C171.873 10.7857 168.222 6.63712 163.078 6.63712C157.934 6.63712 154.366 10.7027 154.366 15.6811V15.764C154.366 20.7424 158.017 24.891 163.161 24.891C168.305 24.891 171.873 20.8253 171.873 15.847Z" fill="#1ABCFE"/>
<path d="M222.302 1.24313L212.387 30.4908H206.828L200.273 11.4902L193.718 30.4908H188.159L178.244 1.24313H185.089L191.105 20.9075L197.618 1.16016H203.094L209.608 20.9075L215.623 1.24313H222.302Z" fill="#0ACF83"/>
<path d="M233.05 13.4829C238.277 13.2755 240.31 11.9064 240.31 9.66614C240.31 7.75778 238.9 6.67915 236.494 6.67915C234.17 6.67915 232.179 7.63332 230.271 9.54168L226.454 5.35159C228.86 2.69648 232.096 0.871094 236.618 0.871094C242.592 0.871094 246.658 3.94106 246.658 9.5002C246.658 14.8105 243.007 16.9677 238.485 17.8804L238.029 20.4111H233.797L232.843 13.6903L233.05 13.4829ZM239.149 30.2848H232.428V23.647H239.149V30.2848Z" fill="#A259FF"/>
</g>
<defs>
<clipPath id="clip0_454_724">
<rect width="247" height="31" fill="white"/>
</clipPath>
</defs>
</svg>
